{
	"asset":{
		"generator":"Khronos glTF Blender I/O v4.1.63",
		"version":"2.0"
	},
	"scene":0,
	"scenes":[
		{
			"name":"Scene",
			"nodes":[
				0
			]
		}
	],
	"nodes":[
		{
			"mesh":0,
			"name":"gemstone_LP",
			"translation":[
				-0.004945273511111736,
				-0.01694922149181366,
				-0.002686489373445511
			]
		}
	],
	"materials":[
		{
			"doubleSided":true,
			"emissiveFactor":[
				1,
				1,
				1
			],
			"emissiveTexture":{
				"index":0
			},
			"name":"Mat\u00e9riau",
			"normalTexture":{
				"index":1
			},
			"pbrMetallicRoughness":{
				"baseColorTexture":{
					"index":2
				},
				"metallicFactor":0,
				"metallicRoughnessTexture":{
					"index":3
				}
			}
		}
	],
	"meshes":[
		{
			"name":"gemstone_LP",
			"primitives":[
				{
					"attributes":{
						"POSITION":0,
						"NORMAL":1,
						"TEXCOORD_0":2
					},
					"indices":3,
					"material":0
				}
			]
		}
	],
	"textures":[
		{
			"sampler":0,
			"source":0
		},
		{
			"sampler":0,
			"source":1
		},
		{
			"sampler":0,
			"source":2
		},
		{
			"sampler":0,
			"source":3
		}
	],
	"images":[
		{
			"mimeType":"image/png",
			"name":"Gemstone_LP_DefaultMaterial_Emissive.png",
			"uri":"Gemstone_LP_DefaultMaterial_Emissive.png"
		},
		{
			"mimeType":"image/png",
			"name":"Gemstone_LP_DefaultMaterial_Normal.png",
			"uri":"Gemstone_LP_DefaultMaterial_Normal.png"
		},
		{
			"mimeType":"image/png",
			"name":"Gemstone_LP_DefaultMaterial_BaseColor.png",
			"uri":"Gemstone_LP_DefaultMaterial_BaseColor.png"
		},
		{
			"mimeType":"image/png",
			"name":"Gemstone_LP_DefaultMaterial_Roughness.png",
			"uri":"Gemstone_LP_DefaultMaterial_Roughness.png"
		}
	],
	"accessors":[
		{
			"bufferView":0,
			"componentType":5126,
			"count":200574,
			"max":[
				0.9945732951164246,
				1.0733476877212524,
				1.0635976791381836
			],
			"min":[
				-1.0427073240280151,
				-1.0320510864257812,
				-1.051666021347046
			],
			"type":"VEC3"
		},
		{
			"bufferView":1,
			"componentType":5126,
			"count":200574,
			"type":"VEC3"
		},
		{
			"bufferView":2,
			"componentType":5126,
			"count":200574,
			"type":"VEC2"
		},
		{
			"bufferView":3,
			"componentType":5125,
			"count":933273,
			"type":"SCALAR"
		}
	],
	"bufferViews":[
		{
			"buffer":0,
			"byteLength":2406888,
			"byteOffset":0,
			"target":34962
		},
		{
			"buffer":0,
			"byteLength":2406888,
			"byteOffset":2406888,
			"target":34962
		},
		{
			"buffer":0,
			"byteLength":1604592,
			"byteOffset":4813776,
			"target":34962
		},
		{
			"buffer":0,
			"byteLength":3733092,
			"byteOffset":6418368,
			"target":34963
		}
	],
	"samplers":[
		{
			"magFilter":9729,
			"minFilter":9987
		}
	],
	"buffers":[
		{
			"byteLength":10151460,
			"uri":"Gemstone_LP.bin"
		}
	]
}
